<svg width="99" height="65" viewBox="0 0 99 65" fill="none" xmlns="http://www.w3.org/2000/svg">
<path d="M2.39647 42.9838L5.96928 48.4489V42.9332C5.96928 42.5748 6.04437 42.307 6.19454 42.1299C6.34888 41.9486 6.55537 41.8579 6.81399 41.8579C7.08096 41.8579 7.29162 41.9486 7.44596 42.1299C7.6003 42.307 7.67747 42.5748 7.67747 42.9332V50.2263C7.67747 51.0402 7.34376 51.4471 6.67634 51.4471C6.50948 51.4471 6.35931 51.4218 6.22582 51.3712C6.09234 51.3248 5.9672 51.2489 5.8504 51.1435C5.7336 51.0381 5.62514 50.9158 5.52503 50.7766C5.42492 50.6333 5.3248 50.4878 5.22469 50.3402L1.73948 44.9383V50.3718C1.73948 50.726 1.65813 50.9938 1.49545 51.1751C1.33276 51.3565 1.12419 51.4471 0.869738 51.4471C0.60694 51.4471 0.396284 51.3565 0.23777 51.1751C0.0792567 50.9896 0 50.7218 0 50.3718V43.2179C0 42.9142 0.0333713 42.676 0.100114 42.5031C0.179371 42.3133 0.31077 42.1594 0.494312 42.0413C0.677854 41.9191 0.875996 41.8579 1.08874 41.8579C1.25559 41.8579 1.39742 41.8853 1.51422 41.9401C1.63519 41.995 1.73948 42.0688 1.82708 42.1615C1.91885 42.2543 2.01062 42.3745 2.10239 42.5221C2.19833 42.6697 2.29636 42.8236 2.39647 42.9838Z" fill="white"/>
<path d="M14.3601 48.3604H11.0188C11.0229 48.7525 11.1001 49.0983 11.2503 49.3977C11.4046 49.6971 11.6069 49.9227 11.8572 50.0745C12.1117 50.2263 12.3912 50.3022 12.6957 50.3022C12.9001 50.3022 13.0857 50.279 13.2526 50.2327C13.4236 50.1821 13.5884 50.1061 13.7469 50.0049C13.9054 49.8995 14.0514 49.7878 14.1849 49.6697C14.3184 49.5516 14.4915 49.3914 14.7042 49.189C14.7918 49.1131 14.917 49.0751 15.0796 49.0751C15.2548 49.0751 15.3967 49.1236 15.5051 49.2206C15.6136 49.3176 15.6678 49.4546 15.6678 49.6317C15.6678 49.7878 15.6073 49.9712 15.4863 50.1821C15.3654 50.3887 15.1818 50.589 14.9357 50.783C14.6938 50.9727 14.3872 51.1309 14.0159 51.2574C13.6488 51.3839 13.2254 51.4471 12.7457 51.4471C11.6487 51.4471 10.7956 51.1309 10.1866 50.4983C9.57755 49.8658 9.27304 49.0076 9.27304 47.9239C9.27304 47.4137 9.34812 46.9414 9.49829 46.507C9.64846 46.0685 9.86746 45.6932 10.1553 45.3811C10.4431 45.0691 10.7977 44.8308 11.219 44.6664C11.6403 44.4977 12.1075 44.4133 12.6206 44.4133C13.288 44.4133 13.8595 44.5567 14.335 44.8435C14.8148 45.126 15.1735 45.4929 15.4113 45.9441C15.649 46.3953 15.7679 46.8549 15.7679 47.323C15.7679 47.7573 15.6449 48.0399 15.3987 48.1706C15.1526 48.2971 14.8064 48.3604 14.3601 48.3604ZM11.0188 47.3799H14.116C14.0743 46.7896 13.9158 46.3489 13.6405 46.0579C13.3694 45.7628 13.0106 45.6152 12.5643 45.6152C12.1388 45.6152 11.7884 45.7649 11.5131 46.0643C11.2419 46.3594 11.0772 46.798 11.0188 47.3799Z" fill="white"/>
<path d="M20.7423 50.7324L19.5034 48.8917L18.2332 50.7324C18.0497 50.9896 17.8933 51.173 17.7639 51.2827C17.6388 51.3923 17.4782 51.4471 17.2821 51.4471C17.0652 51.4471 16.8796 51.3796 16.7253 51.2447C16.5751 51.1056 16.5 50.9474 16.5 50.7703C16.5 50.589 16.6168 50.3296 16.8504 49.9923L18.3959 47.7531L17.0256 45.8871C16.7878 45.5793 16.6689 45.3115 16.6689 45.0838C16.6689 44.9067 16.7399 44.7528 16.8817 44.6221C17.0235 44.4914 17.2091 44.426 17.4386 44.426C17.6388 44.426 17.8036 44.4829 17.9329 44.5968C18.0664 44.7106 18.2207 44.8899 18.3959 45.1344L19.5034 46.6652L20.5796 45.1344C20.759 44.8814 20.9134 44.7001 21.0427 44.5905C21.1761 44.4808 21.3409 44.426 21.537 44.426C21.7622 44.426 21.9479 44.4914 22.0939 44.6221C22.244 44.7486 22.3191 44.9025 22.3191 45.0838C22.3191 45.2146 22.2878 45.3411 22.2253 45.4634C22.1669 45.5814 22.0751 45.7227 21.9499 45.8871L20.5796 47.7531L22.1251 49.9923C22.3671 50.3423 22.4881 50.6058 22.4881 50.783C22.4881 50.9643 22.413 51.1203 22.2628 51.251C22.1126 51.3818 21.927 51.4471 21.7059 51.4471C21.5099 51.4471 21.343 51.3902 21.2053 51.2763C21.0719 51.1625 20.9175 50.9812 20.7423 50.7324Z" fill="white"/>
<path d="M23.8146 44.5778H24.0023V43.5404C24.0023 43.2621 24.0085 43.045 24.021 42.8889C24.0377 42.7287 24.0794 42.5916 24.1462 42.4778C24.2129 42.3597 24.3089 42.2648 24.434 42.1932C24.5592 42.1172 24.6989 42.0793 24.8532 42.0793C25.0702 42.0793 25.2662 42.1615 25.4414 42.326C25.5582 42.4356 25.6312 42.5706 25.6604 42.7308C25.6938 42.8868 25.7105 43.1103 25.7105 43.4013V44.5778H26.3362C26.5781 44.5778 26.7617 44.6368 26.8868 44.7549C27.0161 44.8688 27.0808 45.0164 27.0808 45.1977C27.0808 45.4296 26.989 45.592 26.8055 45.6847C26.6261 45.7775 26.3675 45.8239 26.0296 45.8239H25.7105V48.9992C25.7105 49.2691 25.7188 49.4778 25.7355 49.6254C25.7564 49.7688 25.8064 49.8869 25.8857 49.9796C25.9691 50.0682 26.1026 50.1125 26.2861 50.1125C26.3862 50.1125 26.5218 50.0956 26.6928 50.0619C26.8639 50.0239 26.9973 50.0049 27.0933 50.0049C27.2309 50.0049 27.354 50.0619 27.4625 50.1757C27.5751 50.2854 27.6314 50.4224 27.6314 50.5869C27.6314 50.8652 27.4812 51.0781 27.1809 51.2257C26.8805 51.3733 26.4488 51.4471 25.8857 51.4471C25.3517 51.4471 24.9471 51.3565 24.6718 51.1751C24.3965 50.9938 24.215 50.7429 24.1274 50.4224C24.044 50.1019 24.0023 49.6739 24.0023 49.1384V45.8239H23.777C23.5309 45.8239 23.3432 45.7649 23.2139 45.6468C23.0846 45.5287 23.0199 45.379 23.0199 45.1977C23.0199 45.0164 23.0867 44.8688 23.2201 44.7549C23.3578 44.6368 23.5559 44.5778 23.8146 44.5778Z" fill="white"/>
<path d="M39.9642 47.5191V49.2965C39.9642 49.5326 39.9412 49.7224 39.8953 49.8658C39.8495 50.0049 39.7639 50.1314 39.6388 50.2453C39.5178 50.3592 39.3614 50.4688 39.1695 50.5742C38.6147 50.8778 38.0808 51.0992 37.5677 51.2384C37.0546 51.3775 36.4956 51.4471 35.8908 51.4471C35.1858 51.4471 34.5434 51.3375 33.9636 51.1182C33.3838 50.8989 32.8895 50.5805 32.4807 50.1631C32.0719 49.7456 31.7569 49.2396 31.5358 48.645C31.3189 48.0504 31.2105 47.3863 31.2105 46.6525C31.2105 45.9314 31.3168 45.2715 31.5296 44.6727C31.7423 44.0739 32.0552 43.5658 32.4681 43.1483C32.8811 42.7308 33.3838 42.4124 33.9761 42.1932C34.5685 41.9697 35.24 41.8579 35.9909 41.8579C36.6083 41.8579 37.1547 41.9422 37.6303 42.1109C38.1058 42.2754 38.4917 42.4841 38.7878 42.7371C39.084 42.9901 39.3072 43.2579 39.4573 43.5404C39.6075 43.823 39.6826 44.0739 39.6826 44.2932C39.6826 44.5293 39.595 44.7317 39.4198 44.9004C39.2488 45.0649 39.0423 45.1471 38.8003 45.1471C38.6669 45.1471 38.5375 45.1155 38.4124 45.0522C38.2914 44.989 38.1892 44.9004 38.1058 44.7865C37.8764 44.4239 37.6824 44.1498 37.5239 43.9642C37.3654 43.7787 37.1506 43.6227 36.8794 43.4962C36.6124 43.3697 36.2704 43.3064 35.8532 43.3064C35.4236 43.3064 35.0398 43.3823 34.7019 43.5341C34.3641 43.6817 34.0741 43.8989 33.8322 44.1856C33.5944 44.4682 33.4109 44.8161 33.2816 45.2293C33.1564 45.6426 33.0939 46.1001 33.0939 46.6019C33.0939 47.6899 33.34 48.5269 33.8322 49.1131C34.3286 49.6992 35.019 49.9923 35.9033 49.9923C36.333 49.9923 36.7355 49.9354 37.1109 49.8215C37.4905 49.7077 37.8743 49.5453 38.2622 49.3345V47.829H36.8231C36.4769 47.829 36.2141 47.7763 36.0347 47.6709C35.8595 47.5655 35.7719 47.3863 35.7719 47.1332C35.7719 46.9266 35.8449 46.7558 35.9909 46.6209C36.1411 46.4859 36.3434 46.4185 36.5978 46.4185H38.7065C38.9651 46.4185 39.1841 46.4417 39.3635 46.4881C39.5429 46.5344 39.6868 46.6378 39.7952 46.798C39.9079 46.9582 39.9642 47.1986 39.9642 47.5191Z" fill="white"/>
<path d="M46.384 48.3604H43.0427C43.0468 48.7525 43.124 49.0983 43.2742 49.3977C43.4285 49.6971 43.6308 49.9227 43.8811 50.0745C44.1356 50.2263 44.4151 50.3022 44.7196 50.3022C44.924 50.3022 45.1096 50.279 45.2765 50.2327C45.4475 50.1821 45.6123 50.1061 45.7708 50.0049C45.9293 49.8995 46.0753 49.7878 46.2088 49.6697C46.3423 49.5516 46.5154 49.3914 46.7281 49.189C46.8157 49.1131 46.9408 49.0751 47.1035 49.0751C47.2787 49.0751 47.4206 49.1236 47.529 49.2206C47.6375 49.3176 47.6917 49.4546 47.6917 49.6317C47.6917 49.7878 47.6312 49.9712 47.5102 50.1821C47.3893 50.3887 47.2057 50.589 46.9596 50.783C46.7177 50.9727 46.4111 51.1309 46.0398 51.2574C45.6727 51.3839 45.2493 51.4471 44.7696 51.4471C43.6726 51.4471 42.8195 51.1309 42.2105 50.4983C41.6014 49.8658 41.2969 49.0076 41.2969 47.9239C41.2969 47.4137 41.372 46.9414 41.5222 46.507C41.6724 46.0685 41.8914 45.6932 42.1792 45.3811C42.467 45.0691 42.8216 44.8308 43.2429 44.6664C43.6642 44.4977 44.1314 44.4133 44.6445 44.4133C45.3119 44.4133 45.8834 44.5567 46.3589 44.8435C46.8386 45.126 47.1974 45.4929 47.4352 45.9441C47.6729 46.3953 47.7918 46.8549 47.7918 47.323C47.7918 47.7573 47.6688 48.0399 47.4226 48.1706C47.1765 48.2971 46.8303 48.3604 46.384 48.3604ZM43.0427 47.3799H46.1399C46.0982 46.7896 45.9397 46.3489 45.6644 46.0579C45.3933 45.7628 45.0345 45.6152 44.5882 45.6152C44.1627 45.6152 43.8123 45.7649 43.537 46.0643C43.2658 46.3594 43.1011 46.798 43.0427 47.3799Z" fill="white"/>
<path d="M50.789 45.3811V45.5899C51.0893 45.1893 51.4168 44.8962 51.7713 44.7106C52.1301 44.5209 52.541 44.426 53.004 44.426C53.4545 44.426 53.857 44.5251 54.2116 44.7233C54.5662 44.9215 54.8311 45.2019 55.0063 45.5646C55.1189 45.7754 55.1919 46.0031 55.2253 46.2477C55.2586 46.4923 55.2753 46.8043 55.2753 47.1838V50.3971C55.2753 50.7429 55.1961 51.0043 55.0375 51.1815C54.8832 51.3586 54.6809 51.4471 54.4306 51.4471C54.1762 51.4471 53.9697 51.3565 53.8112 51.1751C53.6526 50.9938 53.5734 50.7345 53.5734 50.3971V47.5191C53.5734 46.9498 53.4941 46.5155 53.3356 46.2161C53.1813 45.9124 52.8705 45.7606 52.4033 45.7606C52.0988 45.7606 51.8214 45.8534 51.5711 46.039C51.3208 46.2203 51.1373 46.4712 51.0205 46.7917C50.9371 47.0489 50.8953 47.5296 50.8953 48.2338V50.3971C50.8953 50.7471 50.814 51.0107 50.6513 51.1878C50.4928 51.3607 50.2863 51.4471 50.0319 51.4471C49.7857 51.4471 49.5834 51.3565 49.4249 51.1751C49.2664 50.9938 49.1871 50.7345 49.1871 50.3971V45.4064C49.1871 45.0775 49.2581 44.8329 49.3999 44.6727C49.5417 44.5082 49.7357 44.426 49.9818 44.426C50.132 44.426 50.2675 44.4618 50.3885 44.5335C50.5095 44.6052 50.6054 44.7127 50.6763 44.8561C50.7514 44.9995 50.789 45.1745 50.789 45.3811Z" fill="white"/>
<path d="M61.7514 48.3604H58.4101C58.4143 48.7525 58.4915 49.0983 58.6416 49.3977C58.796 49.6971 58.9983 49.9227 59.2486 50.0745C59.503 50.2263 59.7825 50.3022 60.087 50.3022C60.2914 50.3022 60.4771 50.279 60.6439 50.2327C60.8149 50.1821 60.9797 50.1061 61.1382 50.0049C61.2967 49.8995 61.4427 49.7878 61.5762 49.6697C61.7097 49.5516 61.8828 49.3914 62.0956 49.189C62.1832 49.1131 62.3083 49.0751 62.471 49.0751C62.6462 49.0751 62.788 49.1236 62.8965 49.2206C63.0049 49.3176 63.0592 49.4546 63.0592 49.6317C63.0592 49.7878 62.9987 49.9712 62.8777 50.1821C62.7567 50.3887 62.5732 50.589 62.3271 50.783C62.0851 50.9727 61.7785 51.1309 61.4073 51.2574C61.0402 51.3839 60.6168 51.4471 60.1371 51.4471C59.04 51.4471 58.187 51.1309 57.5779 50.4983C56.9689 49.8658 56.6644 49.0076 56.6644 47.9239C56.6644 47.4137 56.7395 46.9414 56.8897 46.507C57.0398 46.0685 57.2588 45.6932 57.5466 45.3811C57.8345 45.0691 58.189 44.8308 58.6104 44.6664C59.0317 44.4977 59.4989 44.4133 60.012 44.4133C60.6794 44.4133 61.2509 44.5567 61.7264 44.8435C62.2061 45.126 62.5648 45.4929 62.8026 45.9441C63.0404 46.3953 63.1593 46.8549 63.1593 47.323C63.1593 47.7573 63.0362 48.0399 62.7901 48.1706C62.544 48.2971 62.1978 48.3604 61.7514 48.3604ZM58.4101 47.3799H61.5074C61.4657 46.7896 61.3072 46.3489 61.0319 46.0579C60.7607 45.7628 60.402 45.6152 59.9556 45.6152C59.5302 45.6152 59.1798 45.7649 58.9044 46.0643C58.6333 46.3594 58.4685 46.798 58.4101 47.3799Z" fill="white"/>
<path d="M66.3003 48.9549V50.3971C66.3003 50.7471 66.219 51.0107 66.0563 51.1878C65.8936 51.3607 65.6871 51.4471 65.4369 51.4471C65.1908 51.4471 64.9884 51.3586 64.8299 51.1815C64.6714 51.0043 64.5922 50.7429 64.5922 50.3971V45.5899C64.5922 44.814 64.8696 44.426 65.4243 44.426C65.708 44.426 65.9124 44.5167 66.0375 44.698C66.1627 44.8793 66.2315 45.1471 66.244 45.5013C66.4484 45.1471 66.657 44.8793 66.8697 44.698C67.0867 44.5167 67.3745 44.426 67.7332 44.426C68.092 44.426 68.4403 44.5167 68.7782 44.698C69.116 44.8793 69.285 45.1197 69.285 45.4191C69.285 45.6299 69.212 45.8049 69.066 45.9441C68.9242 46.079 68.7698 46.1465 68.603 46.1465C68.5404 46.1465 68.3881 46.1085 68.1462 46.0326C67.9084 45.9525 67.6978 45.9124 67.5142 45.9124C67.2639 45.9124 67.0595 45.9799 66.901 46.1149C66.7425 46.2456 66.6195 46.4417 66.5319 46.7031C66.4443 46.9646 66.3838 47.2766 66.3504 47.6393C66.317 47.9977 66.3003 48.4363 66.3003 48.9549Z" fill="white"/>
<path d="M74.2156 50.473C73.8026 50.7977 73.4022 51.0423 73.0142 51.2068C72.6305 51.367 72.1987 51.4471 71.719 51.4471C71.281 51.4471 70.8951 51.3607 70.5614 51.1878C70.2319 51.0107 69.9774 50.7724 69.7981 50.473C69.6187 50.1736 69.529 49.8489 69.529 49.4989C69.529 49.0266 69.6771 48.6239 69.9733 48.2908C70.2694 47.9576 70.6762 47.7341 71.1934 47.6203C71.3019 47.595 71.5709 47.5381 72.0006 47.4495C72.4302 47.361 72.7973 47.2808 73.1018 47.2091C73.4105 47.1332 73.7442 47.0426 74.103 46.9372C74.0821 46.4817 73.9903 46.1486 73.8276 45.9378C73.6691 45.7227 73.3375 45.6152 72.8328 45.6152C72.3989 45.6152 72.0715 45.6763 71.8504 45.7986C71.6335 45.9209 71.4458 46.1043 71.2873 46.3489C71.1329 46.5935 71.0224 46.7558 70.9556 46.8359C70.8931 46.9119 70.7554 46.9498 70.5427 46.9498C70.3508 46.9498 70.1839 46.8887 70.0421 46.7664C69.9044 46.6399 69.8356 46.4796 69.8356 46.2856C69.8356 45.982 69.942 45.6868 70.1547 45.4001C70.3675 45.1133 70.6991 44.8772 71.1496 44.6917C71.6001 44.5061 72.1612 44.4133 72.8328 44.4133C73.5836 44.4133 74.1739 44.504 74.6035 44.6853C75.0332 44.8624 75.3356 45.145 75.5108 45.5329C75.6902 45.9209 75.7799 46.4353 75.7799 47.0763C75.7799 47.4811 75.7778 47.8248 75.7736 48.1073C75.7736 48.3899 75.7715 48.704 75.7674 49.0498C75.7674 49.3745 75.8195 49.714 75.9238 50.0682C76.0322 50.4182 76.0865 50.6438 76.0865 50.745C76.0865 50.9221 76.003 51.0845 75.8362 51.2321C75.6735 51.3754 75.4879 51.4471 75.2793 51.4471C75.1041 51.4471 74.931 51.3649 74.76 51.2004C74.5889 51.0318 74.4075 50.7893 74.2156 50.473ZM74.103 47.9745C73.8527 48.0673 73.4877 48.1664 73.008 48.2718C72.5324 48.373 72.2029 48.4489 72.0193 48.4995C71.8358 48.5459 71.6606 48.6408 71.4938 48.7842C71.3269 48.9233 71.2435 49.1194 71.2435 49.3724C71.2435 49.6339 71.3415 49.8574 71.5375 50.0429C71.7336 50.2242 71.9901 50.3149 72.3072 50.3149C72.6451 50.3149 72.9558 50.2411 73.2395 50.0935C73.5273 49.9417 73.738 49.7477 73.8715 49.5116C74.0258 49.2501 74.103 48.82 74.103 48.2212V47.9745Z" fill="white"/>
<path d="M77.2878 44.5778H77.4755V43.5404C77.4755 43.2621 77.4818 43.045 77.4943 42.8889C77.511 42.7287 77.5527 42.5916 77.6195 42.4778C77.6862 42.3597 77.7822 42.2648 77.9073 42.1932C78.0324 42.1172 78.1722 42.0793 78.3265 42.0793C78.5434 42.0793 78.7395 42.1615 78.9147 42.326C79.0315 42.4356 79.1045 42.5706 79.1337 42.7308C79.1671 42.8868 79.1837 43.1103 79.1837 43.4013V44.5778H79.8095C80.0514 44.5778 80.2349 44.6368 80.3601 44.7549C80.4894 44.8688 80.554 45.0164 80.554 45.1977C80.554 45.4296 80.4623 45.592 80.2787 45.6847C80.0994 45.7775 79.8407 45.8239 79.5028 45.8239H79.1837V48.9992C79.1837 49.2691 79.1921 49.4778 79.2088 49.6254C79.2296 49.7688 79.2797 49.8869 79.3589 49.9796C79.4424 50.0682 79.5758 50.1125 79.7594 50.1125C79.8595 50.1125 79.9951 50.0956 80.1661 50.0619C80.3371 50.0239 80.4706 50.0049 80.5666 50.0049C80.7042 50.0049 80.8273 50.0619 80.9357 50.1757C81.0484 50.2854 81.1047 50.4224 81.1047 50.5869C81.1047 50.8652 80.9545 51.0781 80.6542 51.2257C80.3538 51.3733 79.9221 51.4471 79.3589 51.4471C78.825 51.4471 78.4204 51.3565 78.1451 51.1751C77.8697 50.9938 77.6883 50.7429 77.6007 50.4224C77.5173 50.1019 77.4755 49.6739 77.4755 49.1384V45.8239H77.2503C77.0042 45.8239 76.8165 45.7649 76.6871 45.6468C76.5578 45.5287 76.4932 45.379 76.4932 45.1977C76.4932 45.0164 76.5599 44.8688 76.6934 44.7549C76.8311 44.6368 77.0292 44.5778 77.2878 44.5778Z" fill="white"/>
<path d="M83.4448 45.4064V50.3971C83.4448 50.7429 83.3635 51.0043 83.2008 51.1815C83.0381 51.3586 82.8316 51.4471 82.5814 51.4471C82.3311 51.4471 82.1267 51.3565 81.9681 51.1751C81.8138 50.9938 81.7366 50.7345 81.7366 50.3971V45.457C81.7366 45.1155 81.8138 44.8582 81.9681 44.6853C82.1267 44.5124 82.3311 44.426 82.5814 44.426C82.8316 44.426 83.0381 44.5124 83.2008 44.6853C83.3635 44.8582 83.4448 45.0986 83.4448 45.4064ZM82.6001 43.6227C82.3624 43.6227 82.158 43.5489 81.9869 43.4013C81.8201 43.2537 81.7366 43.045 81.7366 42.7751C81.7366 42.5305 81.8222 42.3302 81.9932 42.1742C82.1684 42.0139 82.3707 41.9338 82.6001 41.9338C82.8212 41.9338 83.0173 42.0055 83.1883 42.1489C83.3593 42.2922 83.4448 42.501 83.4448 42.7751C83.4448 43.0407 83.3614 43.2495 83.1945 43.4013C83.0277 43.5489 82.8296 43.6227 82.6001 43.6227Z" fill="white"/>
<path d="M91.6104 47.9366C91.6104 48.451 91.5311 48.9254 91.3726 49.3598C91.2141 49.7941 90.9846 50.1673 90.6843 50.4793C90.384 50.7914 90.0252 51.0318 89.6081 51.2004C89.1909 51.3649 88.7217 51.4471 88.2002 51.4471C87.683 51.4471 87.2179 51.3628 86.8049 51.1941C86.3919 51.0254 86.0332 50.7851 85.7287 50.473C85.4283 50.1567 85.1989 49.7857 85.0404 49.3598C84.8861 48.9296 84.8089 48.4552 84.8089 47.9366C84.8089 47.4137 84.8881 46.935 85.0467 46.5007C85.2052 46.0664 85.4325 45.6953 85.7287 45.3874C86.0248 45.0796 86.3836 44.8435 86.8049 44.679C87.2262 44.5103 87.6913 44.426 88.2002 44.426C88.7175 44.426 89.1868 44.5103 89.6081 44.679C90.0294 44.8477 90.3902 45.088 90.6906 45.4001C90.9909 45.7121 91.2182 46.0832 91.3726 46.5134C91.5311 46.9435 91.6104 47.4179 91.6104 47.9366ZM89.8959 47.9366C89.8959 47.2323 89.7416 46.6841 89.4329 46.292C89.1284 45.8998 88.7175 45.7037 88.2002 45.7037C87.8665 45.7037 87.5724 45.7923 87.318 45.9694C87.0635 46.1423 86.8675 46.3995 86.7298 46.7411C86.5922 47.0826 86.5233 47.4811 86.5233 47.9366C86.5233 48.3878 86.5901 48.782 86.7236 49.1194C86.8612 49.4567 87.0552 49.7161 87.3055 49.8974C87.5599 50.0745 87.8582 50.1631 88.2002 50.1631C88.7175 50.1631 89.1284 49.967 89.4329 49.5748C89.7416 49.1784 89.8959 48.6323 89.8959 47.9366Z" fill="white"/>
<path d="M94.5137 45.3811V45.5899C94.814 45.1893 95.1415 44.8962 95.496 44.7106C95.8548 44.5209 96.2657 44.426 96.7287 44.426C97.1792 44.426 97.5817 44.5251 97.9363 44.7233C98.2909 44.9215 98.5558 45.2019 98.731 45.5646C98.8436 45.7754 98.9166 46.0031 98.95 46.2477C98.9833 46.4923 99 46.8043 99 47.1838V50.3971C99 50.7429 98.9208 51.0043 98.7622 51.1815C98.6079 51.3586 98.4056 51.4471 98.1553 51.4471C97.9008 51.4471 97.6944 51.3565 97.5358 51.1751C97.3773 50.9938 97.2981 50.7345 97.2981 50.3971V47.5191C97.2981 46.9498 97.2188 46.5155 97.0603 46.2161C96.906 45.9124 96.5952 45.7606 96.128 45.7606C95.8235 45.7606 95.5461 45.8534 95.2958 46.039C95.0455 46.2203 94.862 46.4712 94.7452 46.7917C94.6617 47.0489 94.62 47.5296 94.62 48.2338V50.3971C94.62 50.7471 94.5387 51.0107 94.376 51.1878C94.2175 51.3607 94.011 51.4471 93.7565 51.4471C93.5104 51.4471 93.3081 51.3565 93.1496 51.1751C92.9911 50.9938 92.9118 50.7345 92.9118 50.3971V45.4064C92.9118 45.0775 92.9827 44.8329 93.1246 44.6727C93.2664 44.5082 93.4604 44.426 93.7065 44.426C93.8567 44.426 93.9922 44.4618 94.1132 44.5335C94.2342 44.6052 94.3301 44.7127 94.401 44.8561C94.4761 44.9995 94.5137 45.1745 94.5137 45.3811Z" fill="white"/>
<path d="M29.9465 63.7609L29.5085 62.597H25.7793L25.3413 63.7862C25.1703 64.25 25.0243 64.5642 24.9033 64.7287C24.7823 64.8889 24.5842 64.969 24.3089 64.969C24.0753 64.969 23.8688 64.8826 23.6894 64.7097C23.51 64.5368 23.4204 64.3407 23.4204 64.1214C23.4204 63.9949 23.4412 63.8642 23.4829 63.7293C23.5247 63.5943 23.5935 63.4067 23.6894 63.1663L26.0358 57.1446C26.1026 56.9717 26.1818 56.7651 26.2736 56.5247C26.3696 56.2801 26.4697 56.0777 26.5739 55.9175C26.6824 55.7572 26.8221 55.6286 26.9932 55.5316C27.1684 55.4304 27.3832 55.3798 27.6377 55.3798C27.8963 55.3798 28.1111 55.4304 28.2821 55.5316C28.4573 55.6286 28.5971 55.7551 28.7014 55.9111C28.8098 56.0672 28.8995 56.2358 28.9704 56.4172C29.0455 56.5943 29.1394 56.8325 29.252 57.1319L31.6485 63.1157C31.8362 63.5711 31.93 63.9022 31.93 64.1088C31.93 64.3238 31.8404 64.522 31.661 64.7034C31.4858 64.8805 31.273 64.969 31.0228 64.969C30.8768 64.969 30.7516 64.9416 30.6473 64.8868C30.543 64.8362 30.4554 64.7666 30.3845 64.6781C30.3136 64.5853 30.2364 64.4461 30.153 64.2606C30.0738 64.0708 30.0049 63.9043 29.9465 63.7609ZM26.2674 61.1865H29.008L27.6251 57.3596L26.2674 61.1865Z" fill="white"/>
<path d="M34.8771 62.4768V63.919C34.8771 64.269 34.7958 64.5326 34.6331 64.7097C34.4704 64.8826 34.2639 64.969 34.0137 64.969C33.7675 64.969 33.5652 64.8805 33.4067 64.7034C33.2482 64.5263 33.1689 64.2648 33.1689 63.919V59.1118C33.1689 58.3359 33.4463 57.9479 34.0011 57.9479C34.2848 57.9479 34.4892 58.0386 34.6143 58.2199C34.7395 58.4012 34.8083 58.669 34.8208 59.0232C35.0252 58.669 35.2338 58.4012 35.4465 58.2199C35.6634 58.0386 35.9513 57.9479 36.31 57.9479C36.6688 57.9479 37.0171 58.0386 37.3549 58.2199C37.6928 58.4012 37.8618 58.6416 37.8618 58.941C37.8618 59.1518 37.7888 59.3268 37.6428 59.466C37.501 59.6009 37.3466 59.6684 37.1798 59.6684C37.1172 59.6684 36.9649 59.6304 36.723 59.5545C36.4852 59.4744 36.2746 59.4344 36.091 59.4344C35.8407 59.4344 35.6363 59.5018 35.4778 59.6368C35.3193 59.7675 35.1962 59.9636 35.1087 60.225C35.021 60.4865 34.9606 60.7985 34.9272 61.1612C34.8938 61.5196 34.8771 61.9582 34.8771 62.4768Z" fill="white"/>
<path d="M44.4818 61.585V63.8811C44.4818 64.2437 44.4005 64.5157 44.2378 64.697C44.0751 64.8784 43.8603 64.969 43.5933 64.969C43.3347 64.969 43.124 64.8784 42.9613 64.697C42.8028 64.5157 42.7236 64.2437 42.7236 63.8811V61.1295C42.7236 60.6952 42.709 60.3579 42.6798 60.1175C42.6506 59.8771 42.5713 59.681 42.442 59.5292C42.3127 59.3732 42.1083 59.2952 41.8288 59.2952C41.2698 59.2952 40.9007 59.4892 40.7213 59.8771C40.5461 60.2651 40.4585 60.8217 40.4585 61.547V63.8811C40.4585 64.2395 40.3771 64.5115 40.2145 64.697C40.0559 64.8784 39.8453 64.969 39.5825 64.969C39.3239 64.969 39.1111 64.8784 38.9443 64.697C38.7816 64.5115 38.7002 64.2395 38.7002 63.8811V58.941C38.7002 58.6163 38.7732 58.3696 38.9192 58.2009C39.0694 58.0322 39.2655 57.9479 39.5074 57.9479C39.741 57.9479 39.935 58.028 40.0893 58.1883C40.2478 58.3443 40.3271 58.5615 40.3271 58.8398V59.0042C40.6232 58.6458 40.9403 58.3822 41.2782 58.2136C41.616 58.0449 41.9915 57.9606 42.4044 57.9606C42.8341 57.9606 43.2033 58.047 43.512 58.2199C43.8206 58.3928 44.0751 58.6542 44.2753 59.0042C44.5631 58.65 44.8718 58.3886 45.2014 58.2199C45.5309 58.047 45.8959 57.9606 46.2964 57.9606C46.7636 57.9606 47.1661 58.0533 47.504 58.2389C47.8419 58.4244 48.0942 58.6901 48.2611 59.0359C48.4071 59.3479 48.4801 59.8392 48.4801 60.5097V63.8811C48.4801 64.2437 48.3988 64.5157 48.2361 64.697C48.0734 64.8784 47.8586 64.969 47.5916 64.969C47.333 64.969 47.1202 64.8784 46.9534 64.697C46.7907 64.5115 46.7093 64.2395 46.7093 63.8811V60.9777C46.7093 60.6067 46.6926 60.3094 46.6593 60.0859C46.6301 59.8624 46.5466 59.6747 46.409 59.5229C46.2713 59.3711 46.0628 59.2952 45.7833 59.2952C45.558 59.2952 45.3432 59.3627 45.1388 59.4976C44.9386 59.6325 44.7821 59.8139 44.6695 60.0416C44.5444 60.3326 44.4818 60.847 44.4818 61.585Z" fill="white"/>
<path d="M54.9061 61.8823H51.5648C51.569 62.2744 51.6462 62.6202 51.7964 62.9196C51.9507 63.219 52.153 63.4446 52.4033 63.5964C52.6578 63.7482 52.9372 63.8241 53.2418 63.8241C53.4462 63.8241 53.6318 63.8009 53.7986 63.7546C53.9697 63.704 54.1344 63.6281 54.2929 63.5268C54.4515 63.4214 54.5975 63.3097 54.7309 63.1916C54.8644 63.0735 55.0375 62.9133 55.2503 62.7109C55.3379 62.635 55.463 62.597 55.6257 62.597C55.8009 62.597 55.9427 62.6455 56.0512 62.7425C56.1597 62.8395 56.2139 62.9765 56.2139 63.1537C56.2139 63.3097 56.1534 63.4931 56.0324 63.704C55.9115 63.9106 55.7279 64.1109 55.4818 64.3049C55.2399 64.4946 54.9333 64.6528 54.562 64.7793C54.1949 64.9058 53.7715 64.969 53.2918 64.969C52.1947 64.969 51.3417 64.6528 50.7327 64.0202C50.1236 63.3877 49.8191 62.5296 49.8191 61.4458C49.8191 60.9356 49.8942 60.4633 50.0444 60.0289C50.1945 59.5904 50.4135 59.2151 50.7014 58.903C50.9892 58.591 51.3438 58.3527 51.7651 58.1883C52.1864 58.0196 52.6536 57.9353 53.1667 57.9353C53.8341 57.9353 54.4056 58.0786 54.8811 58.3654C55.3608 58.6479 55.7196 59.0148 55.9573 59.466C56.1951 59.9172 56.314 60.3768 56.314 60.8449C56.314 61.2792 56.1909 61.5618 55.9448 61.6925C55.6987 61.819 55.3525 61.8823 54.9061 61.8823ZM51.5648 60.9018H54.6621C54.6204 60.3115 54.4619 59.8708 54.1866 59.5798C53.9154 59.2847 53.5567 59.1371 53.1104 59.1371C52.6849 59.1371 52.3345 59.2868 52.0592 59.5862C51.788 59.8813 51.6232 60.3199 51.5648 60.9018Z" fill="white"/>
<path d="M59.3112 58.903V59.1118C59.6115 58.7112 59.9389 58.4181 60.2935 58.2325C60.6523 58.0428 61.0631 57.9479 61.5262 57.9479C61.9767 57.9479 62.3792 58.047 62.7338 58.2452C63.0884 58.4434 63.3532 58.7238 63.5284 59.0865C63.6411 59.2973 63.7141 59.525 63.7474 59.7696C63.7808 60.0142 63.7975 60.3262 63.7975 60.7057V63.919C63.7975 64.2648 63.7182 64.5263 63.5597 64.7034C63.4054 64.8805 63.2031 64.969 62.9528 64.969C62.6983 64.969 62.4919 64.8784 62.3333 64.697C62.1748 64.5157 62.0956 64.2564 62.0956 63.919V61.041C62.0956 60.4717 62.0163 60.0374 61.8578 59.738C61.7035 59.4344 61.3927 59.2825 60.9255 59.2825C60.621 59.2825 60.3436 59.3753 60.0933 59.5609C59.843 59.7422 59.6595 59.9931 59.5427 60.3136C59.4592 60.5708 59.4175 61.0515 59.4175 61.7558V63.919C59.4175 64.269 59.3362 64.5326 59.1735 64.7097C59.015 64.8826 58.8085 64.969 58.554 64.969C58.3079 64.969 58.1056 64.8784 57.9471 64.697C57.7886 64.5157 57.7093 64.2564 57.7093 63.919V58.9283C57.7093 58.5994 57.7802 58.3548 57.9221 58.1946C58.0639 58.0301 58.2579 57.9479 58.504 57.9479C58.6542 57.9479 58.7897 57.9837 58.9107 58.0554C59.0317 58.1271 59.1276 58.2347 59.1985 58.378C59.2736 58.5214 59.3112 58.6964 59.3112 58.903Z" fill="white"/>
<path d="M67.2139 58.9283V63.919C67.2139 64.2648 67.1325 64.5263 66.9699 64.7034C66.8072 64.8805 66.6007 64.969 66.3504 64.969C66.1001 64.969 65.8957 64.8784 65.7372 64.697C65.5829 64.5157 65.5057 64.2564 65.5057 63.919V58.9789C65.5057 58.6374 65.5829 58.3801 65.7372 58.2072C65.8957 58.0343 66.1001 57.9479 66.3504 57.9479C66.6007 57.9479 66.8072 58.0343 66.9699 58.2072C67.1325 58.3801 67.2139 58.6205 67.2139 58.9283ZM66.3692 57.1446C66.1314 57.1446 65.927 57.0708 65.756 56.9232C65.5891 56.7756 65.5057 56.5669 65.5057 56.297C65.5057 56.0524 65.5912 55.8521 65.7622 55.6961C65.9374 55.5358 66.1397 55.4557 66.3692 55.4557C66.5903 55.4557 66.7863 55.5274 66.9573 55.6708C67.1284 55.8142 67.2139 56.0229 67.2139 56.297C67.2139 56.5627 67.1305 56.7714 66.9636 56.9232C66.7967 57.0708 66.5986 57.1446 66.3692 57.1446Z" fill="white"/>
<path d="M73.3021 63.9949C72.8891 64.3196 72.4886 64.5642 72.1007 64.7287C71.7169 64.8889 71.2852 64.969 70.8055 64.969C70.3675 64.969 69.9816 64.8826 69.6479 64.7097C69.3184 64.5326 69.0639 64.2943 68.8845 63.9949C68.7052 63.6955 68.6155 63.3708 68.6155 63.0208C68.6155 62.5485 68.7636 62.1458 69.0597 61.8127C69.3559 61.4795 69.7626 61.2561 70.2799 61.1422C70.3883 61.1169 70.6574 61.06 71.087 60.9714C71.5167 60.8829 71.8838 60.8027 72.1883 60.731C72.497 60.6551 72.8307 60.5645 73.1894 60.4591C73.1686 60.0036 73.0768 59.6705 72.9141 59.4597C72.7556 59.2446 72.424 59.1371 71.9192 59.1371C71.4854 59.1371 71.158 59.1982 70.9369 59.3205C70.72 59.4428 70.5322 59.6262 70.3737 59.8708C70.2194 60.1154 70.1088 60.2777 70.0421 60.3579C69.9795 60.4338 69.8419 60.4717 69.6291 60.4717C69.4372 60.4717 69.2704 60.4106 69.1286 60.2883C68.9909 60.1618 68.9221 60.0015 68.9221 59.8076C68.9221 59.5039 69.0285 59.2088 69.2412 58.922C69.4539 58.6353 69.7856 58.3991 70.2361 58.2136C70.6866 58.028 71.2476 57.9353 71.9192 57.9353C72.6701 57.9353 73.2603 58.0259 73.69 58.2072C74.1197 58.3843 74.4221 58.6669 74.5973 59.0548C74.7766 59.4428 74.8663 59.9573 74.8663 60.5982C74.8663 61.003 74.8642 61.3467 74.8601 61.6292C74.8601 61.9118 74.858 62.2259 74.8538 62.5717C74.8538 62.8964 74.906 63.2359 75.0102 63.5901C75.1187 63.9401 75.1729 64.1657 75.1729 64.2669C75.1729 64.444 75.0895 64.6064 74.9226 64.754C74.76 64.8973 74.5743 64.969 74.3658 64.969C74.1906 64.969 74.0175 64.8868 73.8464 64.7223C73.6754 64.5537 73.4939 64.3112 73.3021 63.9949ZM73.1894 61.4964C72.9391 61.5892 72.5741 61.6883 72.0944 61.7937C71.6189 61.8949 71.2894 61.9708 71.1058 62.0214C70.9223 62.0678 70.7471 62.1627 70.5802 62.3061C70.4134 62.4452 70.3299 62.6413 70.3299 62.8943C70.3299 63.1558 70.428 63.3793 70.624 63.5648C70.8201 63.7461 71.0766 63.8368 71.3936 63.8368C71.7315 63.8368 72.0423 63.763 72.3259 63.6154C72.6138 63.4636 72.8244 63.2696 72.9579 63.0335C73.1123 62.772 73.1894 62.3419 73.1894 61.7431V61.4964Z" fill="white"/>
<path d="M53.8622 20.1469C55.6257 20.1469 57.0554 18.6555 57.0554 16.8158C57.0554 14.976 55.6257 13.4846 53.8622 13.4846C52.0986 13.4846 50.6689 14.976 50.6689 16.8158C50.6689 18.6555 52.0986 20.1469 53.8622 20.1469Z" fill="white"/>
<path fill-rule="evenodd" clip-rule="evenodd" d="M53.8623 13.5275C52.1214 13.5275 50.7102 14.9997 50.7102 16.8157C50.7102 18.6317 52.1214 20.1039 53.8623 20.1039C55.6031 20.1039 57.0143 18.6317 57.0143 16.8157C57.0143 14.9997 55.6031 13.5275 53.8623 13.5275ZM50.6279 16.8157C50.6279 14.9523 52.076 13.4417 53.8623 13.4417C55.6485 13.4417 57.0966 14.9523 57.0966 16.8157C57.0966 18.6791 55.6485 20.1897 53.8623 20.1897C52.076 20.1897 50.6279 18.6791 50.6279 16.8157Z" fill="white"/>
<path d="M39.4049 33.8954C42.3514 34.5038 43.54 32.4752 43.54 32.4752C43.54 32.4752 29.4922 18.9807 33.6066 6.24483C34.2631 4.21371 36.8574 3.02696 37.9704 2.99349C45.0774 2.7764 48.361 16.1739 48.361 16.1739C50.772 12.315 53.8887 10.1475 53.8887 10.1475C60.9126 5.46482 64.986 10.1475 64.986 10.1475C74.9185 21.3328 52.4961 37.9602 52.4961 37.9602C52.4961 37.9602 71.1783 28.7039 70.5967 16.1739C70.0151 3.64393 58.1718 0.11028 50.4183 6.48339C50.4183 6.48339 45.5767 -0.0853672 40.7556 0.00130091C40.7556 0.00130091 29.8459 -0.389135 29.0356 12.3579C28.4508 21.5533 35.2189 28.8163 38.0263 32.9909C38.3446 33.4646 38.8291 33.7855 39.3753 33.8894C39.3852 33.8919 39.3959 33.8937 39.4049 33.8954Z" fill="white"/>
<path fill-rule="evenodd" clip-rule="evenodd" d="M48.9845 37.1814C45.6589 38.7724 43.0464 37.3222 43.0464 37.3222C46.7405 38.6282 53.8319 33.4744 55.3438 30.5131C56.2363 28.7652 55.1908 28.4468 54.5122 28.6708C54.1816 28.7797 53.9045 28.9424 53.6396 29.0979C53.0884 29.4215 52.5894 29.7145 51.7689 29.4294C50.5944 29.021 49.8599 26.8632 49.3523 25.3721C49.2402 25.043 49.1392 24.7463 49.047 24.5082C48.6522 23.4896 46.6361 22.471 46.8442 25.4624C47.1428 29.758 47.1551 30.4265 46.7405 31.4674C46.7211 31.5163 46.7013 31.5664 46.6812 31.6175C46.1983 32.8436 45.4805 34.6662 42.5723 35.1876C39.7221 35.6982 38.2475 33.2282 38.2475 33.2282C41.0506 35.1447 43.436 32.4846 43.436 32.4846C46.4754 27.8234 43.0781 21.2971 40.0522 15.4843C38.3922 12.2954 36.844 9.32119 36.5316 6.98749C36.1417 4.07767 38.2105 5.36911 38.5107 5.86595C51.7361 27.7695 55.8272 22.9662 59.8289 18.2678C60.065 17.9905 60.3009 17.7136 60.5383 17.4426C62.8884 14.7593 63.0734 16.89 63.0734 16.89C62.8785 27.0756 53.878 34.8405 48.9845 37.1814ZM55.0287 26.3531C55.0287 27.5383 54.1077 28.4992 52.9715 28.4992C51.8353 28.4992 50.9142 27.5383 50.9142 26.3531C50.9142 25.1678 51.8353 24.207 52.9715 24.207C54.1077 24.207 55.0287 25.1678 55.0287 26.3531Z" fill="white"/>
<path fill-rule="evenodd" clip-rule="evenodd" d="M38.0414 5.38588C38.2739 5.53283 38.4657 5.71089 38.5456 5.84325L38.5457 5.84326C41.8513 11.318 44.5852 15.1222 46.8885 17.6758C49.1923 20.2299 51.0624 21.5297 52.6401 22.0015C54.215 22.4725 55.5027 22.1197 56.6475 21.3564C57.7947 20.5914 58.7969 19.4152 59.7983 18.2395L59.7985 18.2392C60.0345 17.9621 60.2705 17.685 60.508 17.4138C61.097 16.7414 61.5533 16.3669 61.9079 16.1859C62.2634 16.0043 62.5218 16.0151 62.7072 16.1227C62.8901 16.2288 62.9913 16.423 63.0466 16.5847C63.0746 16.6662 63.0915 16.7412 63.1014 16.7958C63.1064 16.8232 63.1096 16.8455 63.1117 16.8611C63.1127 16.869 63.1134 16.8751 63.1138 16.8794C63.1141 16.8815 63.1142 16.8831 63.1143 16.8843L63.1145 16.8857L63.1145 16.8861L63.1145 16.8862C63.1145 16.8862 63.1145 16.8863 63.0736 16.8901L63.1145 16.8863L63.1147 16.8886L63.1147 16.891C63.0169 21.997 60.7122 26.4939 57.8222 30.0056C54.9323 33.5172 51.4541 36.0475 49.0018 37.2206C47.3305 38.0201 45.8377 38.0557 44.7625 37.891C44.2249 37.8087 43.7918 37.6764 43.4928 37.5645C43.3432 37.5085 43.2272 37.4576 43.1484 37.4207C43.109 37.4022 43.0788 37.3872 43.0585 37.3767C43.0483 37.3715 43.0406 37.3674 43.0353 37.3646C43.0334 37.3636 43.0318 37.3628 43.0306 37.3621L43.0294 37.3614L43.0278 37.3606L43.0274 37.3603L43.0272 37.3603C43.0272 37.3602 43.0272 37.3602 43.0319 37.351L43.0272 37.3602L43.0597 37.2817C43.9722 37.6043 45.0988 37.5292 46.3029 37.1845C47.5064 36.84 48.783 36.2275 49.9926 35.4812C51.2021 34.7349 52.3435 33.8555 53.2765 32.9783C54.2102 32.1005 54.9329 31.2271 55.3076 30.4932C55.7523 29.6221 55.7025 29.1298 55.4868 28.8815C55.3777 28.7559 55.2213 28.6858 55.0484 28.6611C54.8756 28.6364 54.6892 28.6576 54.5247 28.7119L54.5247 28.7119C54.1987 28.8193 53.9252 28.9797 53.6599 29.1355L53.6574 29.1369C53.3835 29.2977 53.1169 29.4543 52.8154 29.5337C52.5113 29.6138 52.1734 29.6153 51.756 29.4703C51.1523 29.2603 50.6686 28.6047 50.2743 27.827C49.879 27.0474 49.5676 26.1328 49.3141 25.3881L49.3136 25.3867C49.2015 25.0572 49.1008 24.7616 49.009 24.5244C48.9136 24.2784 48.7189 24.0296 48.4822 23.8412C48.2452 23.6527 47.971 23.5285 47.719 23.5246C47.4702 23.5208 47.2395 23.6339 47.0811 23.9292C46.9209 24.2278 46.8335 24.7151 46.8853 25.4594L46.8443 25.4626L46.8853 25.4594C47.1836 29.7506 47.1978 30.4315 46.7786 31.484C46.7592 31.5328 46.7395 31.5829 46.7193 31.634L46.7186 31.6358C46.4774 32.2483 46.1749 33.0165 45.5664 33.6963C44.9564 34.3778 44.0415 34.9679 42.5794 35.2301L42.5728 35.1899L42.5794 35.2301C41.1408 35.4878 40.0485 34.9929 39.3169 34.4342C38.9513 34.1549 38.6756 33.8597 38.4913 33.6342C38.3991 33.5214 38.3296 33.4259 38.2832 33.3585C38.2599 33.3248 38.2424 33.2982 38.2307 33.2798C38.2248 33.2706 38.2204 33.2635 38.2174 33.2587C38.2163 33.257 38.2155 33.2556 38.2148 33.2544L38.214 33.2531L38.2131 33.2516L38.2128 33.2512L38.2128 33.2511C38.2127 33.2511 38.2127 33.251 38.2476 33.2284L38.2127 33.251L38.114 33.0857L38.2702 33.1925C39.6574 34.141 40.9394 33.9571 41.8768 33.5359C42.346 33.325 42.7287 33.0546 42.9942 32.8368C43.1269 32.7279 43.2301 32.6323 43.3001 32.564C43.335 32.5299 43.3617 32.5026 43.3795 32.4839C43.3855 32.4777 43.3904 32.4724 43.3944 32.4682C43.3964 32.4661 43.3981 32.4642 43.3996 32.4626C43.4015 32.4606 43.4029 32.459 43.404 32.4578C44.9116 30.1434 44.8251 27.3632 43.9793 24.4288C43.1331 21.4931 41.5296 18.4123 40.0162 15.5049L40.0158 15.5041C39.1861 13.9102 38.3835 12.3685 37.7493 10.9333C37.1152 9.49827 36.6481 8.16674 36.491 6.99361C36.3932 6.26332 36.448 5.78725 36.598 5.49474C36.6735 5.34753 36.7731 5.24691 36.8886 5.18492C37.0038 5.12312 37.1323 5.101 37.2642 5.10653C37.5269 5.11756 37.8084 5.23851 38.0414 5.38588ZM43.4361 32.4848C43.4662 32.5141 43.4661 32.5141 43.4661 32.5142L43.466 32.5143L43.4656 32.5147L43.4642 32.5163C43.463 32.5176 43.4612 32.5196 43.4588 32.5222C43.4541 32.5273 43.447 32.5348 43.4378 32.5445C43.4193 32.5638 43.392 32.5918 43.3563 32.6267C43.2848 32.6964 43.1798 32.7936 43.045 32.9042C42.7756 33.1253 42.3868 33.4001 41.9093 33.6147C40.9925 34.0267 39.7481 34.2164 38.399 33.3777C38.4399 33.4342 38.4915 33.5022 38.5539 33.5785C38.7351 33.8001 39.0062 34.0905 39.3655 34.3649C40.0838 34.9135 41.1539 35.3984 42.5655 35.1455C44.0115 34.8863 44.9096 34.3044 45.5063 33.6377C46.1039 32.97 46.4017 32.2148 46.6433 31.6014L46.6434 31.601C46.6635 31.55 46.6832 31.5 46.7027 31.4511L46.7381 31.4664L46.7027 31.4511C47.1126 30.4219 47.1022 29.7658 46.8033 25.4657C46.751 24.7144 46.8376 24.2072 47.0093 23.8873C47.1827 23.5641 47.4417 23.4346 47.7202 23.4388C47.9955 23.443 48.2864 23.5775 48.532 23.773C48.7779 23.9686 48.9832 24.229 49.0853 24.4923L49.0853 24.4923C49.1778 24.7313 49.279 25.0286 49.3909 25.3571L49.3911 25.358C49.6451 26.1041 49.9547 27.0132 50.347 27.7869C50.7404 28.5629 51.2112 29.1904 51.782 29.3888C52.1851 29.5289 52.507 29.5265 52.7953 29.4505C53.0853 29.3741 53.3431 29.223 53.6195 29.0607L53.6209 29.0599C53.8851 28.9048 54.1652 28.7403 54.4999 28.6301C54.6747 28.5724 54.8734 28.5494 55.0596 28.5761C55.2457 28.6027 55.4222 28.6794 55.5477 28.8239C55.8013 29.1158 55.8279 29.6566 55.3802 30.5335C54.999 31.2802 54.2683 32.1615 53.3316 33.0421C52.3944 33.9232 51.2486 34.8059 50.0345 35.555C48.8205 36.304 47.5371 36.9202 46.3247 37.2672C45.3422 37.5485 44.4035 37.6538 43.5853 37.5075C43.8765 37.6123 44.2808 37.7305 44.7744 37.8061C45.8368 37.9688 47.3131 37.934 48.9675 37.1426C51.4086 35.9748 54.8774 33.4522 57.7598 29.9497C60.6417 26.4479 62.9344 21.9704 63.0324 16.8918C63.0323 16.891 63.0322 16.8901 63.0321 16.8889C63.0318 16.8863 63.0314 16.8827 63.0309 16.8783C63.0306 16.8766 63.0304 16.8746 63.0301 16.8726C63.0283 16.8583 63.0253 16.8375 63.0206 16.8118C63.0112 16.7604 62.9953 16.6899 62.9692 16.6136C62.9164 16.4596 62.8244 16.2889 62.6673 16.1977C62.5127 16.108 62.2841 16.0893 61.944 16.2629C61.603 16.4371 61.1549 16.8025 60.5688 17.4717C60.3316 17.7424 60.096 18.0191 59.8598 18.2964L59.8598 18.2965L59.8574 18.2992C58.8587 19.4718 57.8495 20.6567 56.6918 21.4287C55.5307 22.2029 54.2188 22.5629 52.6175 22.084C51.019 21.606 49.1365 20.2934 46.8286 17.7346C44.5201 15.1753 41.7831 11.366 38.4761 5.88901C38.4059 5.77295 38.2265 5.60326 37.9988 5.45926C37.7717 5.31568 37.5041 5.20248 37.2609 5.19227C37.1397 5.18719 37.026 5.20767 36.9263 5.26123C36.8268 5.31459 36.7388 5.40207 36.6705 5.53522C36.533 5.80342 36.4754 6.2571 36.5725 6.98173L36.5725 6.98173C36.7278 8.14229 37.191 9.4647 37.824 10.8974C38.457 12.3297 39.2583 13.8692 40.0885 15.464L40.0897 15.4664C41.6018 18.3711 43.2092 21.4591 44.0581 24.4041C44.9072 27.3503 45 30.1627 43.4701 32.5089L43.4683 32.5117L43.4662 32.5141L43.4361 32.4848ZM50.8732 26.3533C50.8732 25.1443 51.8127 24.1642 52.9716 24.1642C54.1305 24.1642 55.07 25.1443 55.07 26.3533C55.07 27.5622 54.1305 28.5423 52.9716 28.5423C51.8127 28.5423 50.8732 27.5622 50.8732 26.3533ZM52.9716 24.2501C51.8581 24.2501 50.9555 25.1917 50.9555 26.3533C50.9555 27.5148 51.8581 28.4565 52.9716 28.4565C54.0851 28.4565 54.9877 27.5148 54.9877 26.3533C54.9877 25.1917 54.0851 24.2501 52.9716 24.2501Z" fill="white"/>
</svg>
