<svg width="46" height="42" viewBox="0 0 46 42" fill="none" xmlns="http://www.w3.org/2000/svg">
<path d="M27.4852 22.2726C29.4348 22.2726 31.0153 20.6239 31.0153 18.5901C31.0153 16.5562 29.4348 14.9075 27.4852 14.9075C25.5356 14.9075 23.9551 16.5562 23.9551 18.5901C23.9551 20.6239 25.5356 22.2726 27.4852 22.2726Z" fill="white"/>
<path fill-rule="evenodd" clip-rule="evenodd" d="M27.4857 14.9547C25.5612 14.9547 24.0011 16.5822 24.0011 18.5899C24.0011 20.5975 25.5612 22.225 27.4857 22.225C29.4102 22.225 30.9704 20.5975 30.9704 18.5899C30.9704 16.5822 29.4102 14.9547 27.4857 14.9547ZM23.9102 18.5899C23.9102 16.5299 25.511 14.8599 27.4857 14.8599C29.4605 14.8599 31.0613 16.5299 31.0613 18.5899C31.0613 20.6499 29.4605 22.3199 27.4857 22.3199C25.511 22.3199 23.9102 20.6499 23.9102 18.5899Z" fill="white"/>
<path d="M11.5027 37.4715C14.76 38.144 16.074 35.9015 16.074 35.9015C16.074 35.9015 0.544085 20.9833 5.09266 6.90369C5.81832 4.65827 8.68642 3.34632 9.91677 3.30932C17.7736 3.06931 21.4037 17.8803 21.4037 17.8803C24.069 13.6143 27.5145 11.2181 27.5145 11.2181C35.2795 6.04138 39.7826 11.2181 39.7826 11.2181C50.763 23.5835 25.975 41.9651 25.975 41.9651C25.975 41.9651 46.6282 31.7322 45.9853 17.8803C45.3424 4.02838 32.2495 0.121915 23.678 7.16741C23.678 7.16741 18.3255 -0.0943737 12.9958 0.00143816C12.9958 0.00143816 0.935106 -0.430191 0.0393946 13.6617C-0.607154 23.8273 6.87499 31.8565 9.97861 36.4716C10.3305 36.9952 10.8661 37.35 11.4699 37.4648C11.4809 37.4677 11.4927 37.4696 11.5027 37.4715Z" fill="white"/>
<path fill-rule="evenodd" clip-rule="evenodd" d="M22.093 41.1042C18.4165 42.863 15.5284 41.2598 15.5284 41.2598C19.6123 42.7036 27.4518 37.0061 29.1232 33.7324C30.1098 31.8001 28.9541 31.4481 28.2038 31.6957C27.8384 31.8161 27.5321 31.9959 27.2392 32.1679C26.6299 32.5256 26.0783 32.8495 25.1712 32.5343C23.8728 32.0828 23.0607 29.6974 22.4996 28.049C22.3757 27.6852 22.2641 27.3572 22.1621 27.0939C21.7256 25.9679 19.4968 24.8418 19.7269 28.1488C20.057 32.8976 20.0706 33.6366 19.6123 34.7873C19.5908 34.8414 19.569 34.8968 19.5467 34.9533C19.0129 36.3088 18.2193 38.3236 15.0043 38.9001C11.8534 39.4645 10.2232 36.7339 10.2232 36.7339C13.322 38.8526 15.9591 35.9119 15.9591 35.9119C19.3192 30.7589 15.5635 23.544 12.2183 17.1179C10.3832 13.5926 8.67167 10.3046 8.32633 7.72473C7.8953 4.50791 10.1823 5.93561 10.5142 6.48486C25.1349 30.6993 29.6576 25.3893 34.0815 20.1951C34.3426 19.8886 34.6033 19.5825 34.8658 19.2829C37.4638 16.3165 37.6684 18.6719 37.6684 18.6719C37.4529 29.9322 27.5027 38.5164 22.093 41.1042ZM28.7749 29.1335C28.7749 30.4438 27.7567 31.506 26.5006 31.506C25.2446 31.506 24.2263 30.4438 24.2263 29.1335C24.2263 27.8231 25.2446 26.7609 26.5006 26.7609C27.7567 26.7609 28.7749 27.8231 28.7749 29.1335Z" fill="white"/>
<path fill-rule="evenodd" clip-rule="evenodd" d="M9.99487 5.95426C10.2518 6.11672 10.4638 6.31356 10.5523 6.45988L10.5523 6.4599C14.2067 12.5123 17.229 16.7177 19.7753 19.5408C22.3222 22.3644 24.3896 23.8013 26.1338 24.3229C27.8748 24.8436 29.2984 24.4536 30.5639 23.6097C31.8321 22.764 32.9401 21.4637 34.0471 20.1639L34.0473 20.1637C34.3083 19.8573 34.5692 19.551 34.8318 19.2512C35.4828 18.5078 35.9873 18.0938 36.3793 17.8937C36.7724 17.693 37.058 17.7049 37.263 17.8239C37.4652 17.9411 37.577 18.1559 37.6382 18.3346C37.6691 18.4247 37.6878 18.5076 37.6988 18.568C37.7043 18.5982 37.7078 18.6229 37.7101 18.6402C37.7112 18.6488 37.712 18.6556 37.7125 18.6603C37.7127 18.6627 37.7129 18.6645 37.713 18.6658L37.7132 18.6673L37.7132 18.6677L37.7132 18.6679C37.7132 18.6679 37.7132 18.668 37.668 18.6723L37.7132 18.668L37.7135 18.6706L37.7134 18.6732C37.6054 24.3179 35.0575 29.2892 31.8626 33.1714C28.6678 37.0535 24.8226 39.8508 22.1115 41.1477C20.2639 42.0315 18.6137 42.0708 17.425 41.8888C16.8308 41.7978 16.3519 41.6515 16.0213 41.5278C15.856 41.4659 15.7277 41.4097 15.6406 41.3688C15.597 41.3484 15.5637 41.3318 15.5412 41.3203C15.53 41.3145 15.5214 41.31 15.5156 41.3069C15.5135 41.3058 15.5118 41.3048 15.5104 41.3041L15.509 41.3033L15.5073 41.3024L15.5068 41.3021L15.5067 41.302C15.5067 41.302 15.5066 41.302 15.5118 41.2918L15.5066 41.302L15.5426 41.2152C16.5513 41.5718 17.7968 41.4888 19.128 41.1077C20.4584 40.7269 21.8697 40.0498 23.2069 39.2247C24.544 38.3997 25.8058 37.4276 26.8373 36.4578C27.8695 35.4874 28.6684 34.5218 29.0826 33.7104C29.5743 32.7474 29.5192 32.2032 29.2807 31.9287C29.1601 31.7899 28.9872 31.7124 28.7961 31.6851C28.6051 31.6577 28.399 31.6812 28.2171 31.7412L28.2171 31.7412C27.8568 31.86 27.5544 32.0373 27.2611 32.2095L27.2584 32.2111C26.9556 32.3889 26.6609 32.5619 26.3276 32.6498C25.9913 32.7383 25.6178 32.74 25.1564 32.5796C24.4889 32.3475 23.9542 31.6228 23.5183 30.763C23.0813 29.9011 22.7371 28.89 22.4568 28.0668L22.4563 28.0652C22.3323 27.701 22.221 27.3741 22.1195 27.112C22.0141 26.84 21.7988 26.5649 21.5371 26.3567C21.2752 26.1482 20.9721 26.011 20.6934 26.0067C20.4184 26.0025 20.1633 26.1275 19.9882 26.454C19.8111 26.784 19.7145 27.3227 19.7718 28.1457L19.7264 28.1491L19.7718 28.1457C20.1015 32.8895 20.1173 33.6422 19.6539 34.8058C19.6324 34.8598 19.6106 34.9151 19.5883 34.9717L19.5875 34.9737C19.3209 35.6507 18.9864 36.5 18.3138 37.2515C17.6394 38.005 16.628 38.6573 15.0116 38.9471L15.0043 38.9027L15.0116 38.9471C13.4212 39.232 12.2137 38.685 11.4049 38.0672C11.0007 37.7585 10.696 37.4321 10.4922 37.1828C10.3902 37.0581 10.3135 36.9526 10.2621 36.8781C10.2364 36.8409 10.2171 36.8114 10.2041 36.7911C10.1976 36.7809 10.1927 36.7731 10.1894 36.7677C10.1882 36.7659 10.1873 36.7643 10.1865 36.763L10.1856 36.7616L10.1846 36.7599L10.1843 36.7595L10.1843 36.7593C10.1842 36.7593 10.1842 36.7593 10.2228 36.7342L10.1842 36.7593L10.0751 36.5765L10.2477 36.6945C11.7813 37.7431 13.1985 37.5399 14.2348 37.0742C14.7536 36.8411 15.1767 36.5421 15.4701 36.3013C15.6168 36.181 15.7309 36.0753 15.8083 35.9998C15.847 35.9621 15.8764 35.9319 15.8961 35.9112C15.9027 35.9044 15.9082 35.8985 15.9126 35.8938C15.9148 35.8915 15.9167 35.8894 15.9183 35.8876C15.9204 35.8854 15.922 35.8837 15.9232 35.8824C17.5898 33.3237 17.4942 30.2502 16.5592 27.0063C15.6237 23.7608 13.8511 20.355 12.178 17.1409L12.1775 17.14C11.2603 15.378 10.373 13.6735 9.67195 12.087C8.97093 10.5005 8.45447 9.02851 8.28087 7.7316C8.1727 6.92427 8.23328 6.39798 8.39916 6.0746C8.48263 5.91186 8.59276 5.80063 8.72043 5.7321C8.84772 5.66378 8.98977 5.63932 9.13558 5.64544C9.42602 5.65763 9.73721 5.79134 9.99487 5.95426ZM15.9587 35.9122C15.9919 35.9446 15.9919 35.9446 15.9919 35.9447L15.9917 35.9448L15.9913 35.9453L15.9898 35.947C15.9884 35.9485 15.9864 35.9507 15.9838 35.9535C15.9785 35.9592 15.9708 35.9675 15.9606 35.9782C15.9401 35.9996 15.9099 36.0305 15.8704 36.0691C15.7914 36.1461 15.6753 36.2536 15.5264 36.3759C15.2285 36.6202 14.7987 36.9241 14.2708 37.1613C13.2572 37.6168 11.8816 37.8265 10.3901 36.8993C10.4353 36.9617 10.4925 37.037 10.5614 37.1213C10.7617 37.3663 11.0614 37.6873 11.4586 37.9907C12.2527 38.5972 13.4357 39.1332 14.9962 38.8536C16.5948 38.567 17.5877 37.9237 18.2473 37.1868C18.908 36.4486 19.2372 35.6137 19.5042 34.9356L19.5044 34.9352C19.5266 34.8788 19.5484 34.8235 19.5699 34.7694L19.6091 34.7864L19.5699 34.7694C20.0231 33.6316 20.0115 32.9064 19.6811 28.1525C19.6233 27.322 19.7191 26.7613 19.9088 26.4076C20.1005 26.0503 20.3869 25.9072 20.6948 25.9119C20.9992 25.9165 21.3207 26.0652 21.5923 26.2812C21.864 26.4975 22.091 26.7854 22.2038 27.0764L22.2038 27.0764C22.3062 27.3407 22.418 27.6694 22.5417 28.0325L22.542 28.0335C22.8228 28.8583 23.165 29.8634 23.5987 30.7186C24.0336 31.5765 24.5541 32.2702 25.1851 32.4896C25.6307 32.6445 25.9866 32.6418 26.3053 32.5578C26.6259 32.4733 26.9109 32.3063 27.2165 32.1269L27.218 32.126C27.5101 31.9545 27.8197 31.7727 28.1897 31.6508C28.383 31.587 28.6027 31.5616 28.8085 31.5911C29.0143 31.6205 29.2093 31.7053 29.3481 31.865C29.6284 32.1877 29.6579 32.7857 29.1629 33.755C28.7415 34.5805 27.9337 35.5548 26.8982 36.5283C25.8621 37.5024 24.5954 38.4782 23.2532 39.3063C21.9112 40.1344 20.4924 40.8155 19.152 41.1992C18.0659 41.5101 17.0281 41.6266 16.1236 41.4648C16.4456 41.5807 16.8925 41.7114 17.4382 41.795C18.6127 41.9748 20.2447 41.9364 22.0736 41.0614C24.7723 39.7705 28.607 36.9817 31.7936 33.1097C34.9795 29.2384 37.5142 24.2885 37.6224 18.6741C37.6224 18.6733 37.6222 18.6722 37.6221 18.6708C37.6218 18.668 37.6214 18.6641 37.6208 18.6592C37.6205 18.6572 37.6202 18.6551 37.62 18.6528C37.6179 18.6371 37.6146 18.6141 37.6094 18.5857C37.5991 18.5288 37.5815 18.4509 37.5526 18.3665C37.4943 18.1963 37.3925 18.0076 37.2188 17.9068C37.0479 17.8076 36.7952 17.7869 36.4193 17.9789C36.0422 18.1714 35.5468 18.5754 34.8989 19.3152C34.6367 19.6145 34.3762 19.9203 34.1151 20.2269L34.1151 20.2269L34.1125 20.23C33.0084 21.5263 31.8928 22.8362 30.6129 23.6896C29.3293 24.5455 27.879 24.9435 26.1087 24.4141C24.3416 23.8857 22.2605 22.4345 19.7091 19.6058C17.1571 16.7765 14.1313 12.5653 10.4753 6.51047C10.3978 6.38216 10.1995 6.19457 9.94774 6.03538C9.6967 5.87665 9.40084 5.75151 9.13192 5.74022C8.99804 5.7346 8.87234 5.75725 8.76204 5.81645C8.65212 5.87545 8.55484 5.97215 8.47934 6.11936C8.32725 6.41585 8.2636 6.9174 8.37093 7.71847L8.37093 7.71848C8.54267 9.00148 9.05466 10.4634 9.75453 12.0473C10.4542 13.6307 11.3401 15.3326 12.2579 17.0956L12.2593 17.0983C13.9308 20.3095 15.7079 23.7232 16.6463 26.979C17.585 30.236 17.6876 33.3452 15.9963 35.9389L15.9943 35.9419L15.9919 35.9446L15.9587 35.9122ZM24.1804 29.1338C24.1804 27.7973 25.219 26.7138 26.5002 26.7138C27.7814 26.7138 28.82 27.7973 28.82 29.1338C28.82 30.4703 27.7814 31.5537 26.5002 31.5537C25.219 31.5537 24.1804 30.4703 24.1804 29.1338ZM26.5002 26.8087C25.2693 26.8087 24.2714 27.8497 24.2714 29.1338C24.2714 30.4179 25.2693 31.4589 26.5002 31.4589C27.7311 31.4589 28.729 30.4179 28.729 29.1338C28.729 27.8497 27.7311 26.8087 26.5002 26.8087Z" fill="white"/>
</svg>
