<svg width="8" height="32" viewBox="0 0 8 32" fill="none" xmlns="http://www.w3.org/2000/svg">
<path d="M2.40463 21.6774L1.74774 4.92669L1.60698 0H6.3929L6.25214 4.92669L5.59525 21.6774H2.40463ZM3.99994 32C3.12409 32 2.37335 31.6872 1.74774 31.0616C1.12213 30.436 0.809326 29.6383 0.809326 28.6686C0.809326 27.6676 1.12213 26.8543 1.74774 26.2287C2.37335 25.6031 3.12409 25.2903 3.99994 25.2903C4.90708 25.2903 5.65781 25.6031 6.25214 26.2287C6.87775 26.8543 7.19056 27.6676 7.19056 28.6686C7.19056 29.6383 6.87775 30.436 6.25214 31.0616C5.65781 31.6872 4.90708 32 3.99994 32Z" fill="#D80027"/>
</svg>
